<svg width="20" height="21" viewBox="0 0 20 21" fill="none" xmlns="http://www.w3.org/2000/svg">
<path fill-rule="evenodd" clip-rule="evenodd" d="M17.0525 3.65911C15.1808 1.78577 12.6925 0.753275 10.0417 0.752441C4.57915 0.752441 0.133319 5.19744 0.130819 10.6624C0.129985 12.4091 0.586652 14.1141 1.45415 15.6174L0.0474854 20.7524L5.30082 19.3741C6.74832 20.1641 8.37832 20.5799 10.0367 20.5808H10.0408C15.5025 20.5808 19.9492 16.1349 19.9517 10.6699C19.9533 8.02244 18.9233 5.53161 17.0525 3.65911ZM10.0417 18.9066H10.0383C8.55999 18.9066 7.11082 18.5091 5.84582 17.7583L5.54499 17.5799L2.42749 18.3974L3.25999 15.3574L3.06415 15.0458C2.23915 13.7341 1.80415 12.2183 1.80499 10.6624C1.80665 6.12077 5.50249 2.42577 10.0458 2.42577C12.2458 2.42577 14.3142 3.28411 15.8692 4.84077C17.4242 6.39827 18.28 8.46744 18.2792 10.6683C18.2767 15.2116 14.5817 18.9066 10.0417 18.9066ZM14.56 12.7374C14.3125 12.6133 13.095 12.0141 12.8675 11.9316C12.6408 11.8491 12.4758 11.8074 12.31 12.0549C12.1442 12.3024 11.6708 12.8608 11.5258 13.0266C11.3817 13.1916 11.2367 13.2124 10.9892 13.0883C10.7417 12.9641 9.94332 12.7033 8.99749 11.8591C8.26165 11.2024 7.76415 10.3916 7.61999 10.1433C7.47582 9.89494 7.60499 9.76161 7.72832 9.63827C7.83999 9.52744 7.97582 9.34911 8.09999 9.20411C8.22499 9.06077 8.26582 8.95744 8.34915 8.79161C8.43165 8.62661 8.39082 8.48161 8.32832 8.35744C8.26582 8.23411 7.77082 7.01494 7.56499 6.51911C7.36415 6.03577 7.15999 6.10161 7.00749 6.09411C6.86332 6.08661 6.69832 6.08577 6.53249 6.08577C6.36749 6.08577 6.09915 6.14744 5.87249 6.39577C5.64582 6.64411 5.00582 7.24327 5.00582 8.46161C5.00582 9.68077 5.89332 10.8583 6.01665 11.0233C6.13999 11.1883 7.76249 13.6899 10.2467 14.7624C10.8375 15.0174 11.2992 15.1699 11.6583 15.2841C12.2517 15.4724 12.7917 15.4458 13.2183 15.3824C13.6942 15.3116 14.6833 14.7833 14.89 14.2049C15.0967 13.6266 15.0967 13.1299 15.0342 13.0274C14.9725 12.9233 14.8075 12.8616 14.56 12.7374Z" fill="#95F211"/>
</svg>
