<svg width="416" height="432" viewBox="0 0 416 432" fill="none" xmlns="http://www.w3.org/2000/svg">
<mask id="mask0_64_319" style="mask-type:alpha" maskUnits="userSpaceOnUse" x="0" y="-1" width="416" height="433">
<path d="M0 36.5C0 16.0655 16.5655 -0.5 37 -0.5H379C399.435 -0.5 416 16.0655 416 36.5V262.5C416 282.935 399.435 299.5 379 299.5H356.049C317.534 299.5 286.476 331.031 287.057 369.541L287.433 394.442C287.745 415.092 271.09 432 250.437 432H37C16.5655 432 0 415.435 0 395L0 36.5Z" fill="#3C3C3C"/>
</mask>
<g mask="url(#mask0_64_319)">
<path d="M0 37C0 16.5655 16.5655 0 37 0H379C399.435 0 416 16.5655 416 37V282.323C416 302.757 399.435 319.323 379 319.323H356.236C317.649 319.323 286.562 350.967 287.246 389.547L287.332 394.343C287.699 415.032 271.029 432 250.337 432H37C16.5655 432 0 415.435 0 395V37Z" fill="#00C4FF"/>
</g>
</svg>
