<svg width="417" height="432" viewBox="0 0 417 432" fill="none" xmlns="http://www.w3.org/2000/svg">
<mask id="mask0_64_338" style="mask-type:alpha" maskUnits="userSpaceOnUse" x="0" y="-1" width="417" height="433">
<path d="M0.5 36.5C0.5 16.0655 17.0655 -0.5 37.5 -0.5H379.5C399.935 -0.5 416.5 16.0655 416.5 36.5V262.5C416.5 282.935 399.935 299.5 379.5 299.5H356.549C318.034 299.5 286.976 331.031 287.557 369.541L287.933 394.442C288.245 415.092 271.59 432 250.937 432H37.5C17.0655 432 0.5 415.435 0.5 395L0.5 36.5Z" fill="#00C4FF" fill-opacity="0.31"/>
<path d="M1 36.5C1 16.3416 17.3416 0 37.5 0H379.5C399.658 0 416 16.3416 416 36.5V262.5C416 282.658 399.658 299 379.5 299H356.549C317.755 299 286.472 330.759 287.057 369.549L287.433 394.449C287.741 414.821 271.311 431.5 250.937 431.5H37.5C17.3416 431.5 1 415.158 1 395V36.5Z" stroke="#00C4FF" stroke-opacity="0.23"/>
</mask>
<g mask="url(#mask0_64_338)">
<path d="M0.5 37C0.5 16.5655 17.0655 0 37.5 0H379.5C399.935 0 416.5 16.5655 416.5 37V282.323C416.5 302.757 399.935 319.323 379.5 319.323H356.736C318.149 319.323 287.062 350.967 287.746 389.547L287.832 394.343C288.199 415.032 271.529 432 250.837 432H37.5C17.0655 432 0.5 415.435 0.5 395V37Z" fill="#00C4FF"/>
</g>
</svg>
